<svg width="200" height="40" viewBox="0 0 200 40" fill="none" xmlns="http://www.w3.org/2000/svg">
<path d="M50 8.87H57.4C62.61 8.87 65.4 10.99 65.4 15.35V16.17C65.4 19.3 63.92 20.85 61.83 21.64L66.38 31.47H60.82L56.82 22.59H55.26V31.47H50V8.87ZM57.21 19.08C59.21 19.08 60.21 18.26 60.21 16.27V15.51C60.21 13.61 59.21 12.88 57.21 12.88H55.21V19.08H57.21Z" fill="url(#paint0_linear_24_19)"/>
<path d="M67.52 27.0001V26.6301C67.52 22.8901 70.27 21.6301 74.76 21.6301H76.41V20.4401C76.41 18.8901 76.03 17.9701 74.48 17.9701C73.12 17.9701 72.58 18.7601 72.48 19.9701H68C68.16 16.2701 70.78 14.5601 74.67 14.5601C78.56 14.5601 81.05 16.2701 81.05 20.2201V31.4701H76.5V29.7001C76.0689 30.4026 75.45 30.9706 74.7131 31.3399C73.9763 31.7092 73.1508 31.8651 72.33 31.7901C69.67 31.7901 67.52 30.3401 67.52 27.0001ZM76.41 26.2501V24.5201H75C73.14 24.5201 72.22 24.9901 72.22 26.3801V26.7301C72.22 27.9601 72.79 28.5601 74.02 28.5601C74.3345 28.5945 74.6528 28.5595 74.9523 28.4574C75.2518 28.3553 75.5252 28.1887 75.7532 27.9693C75.9812 27.7499 76.1582 27.4831 76.2717 27.1877C76.3852 26.8924 76.4324 26.5757 76.41 26.2601V26.2501Z" fill="url(#paint1_linear_24_19)"/>
<path d="M83.42 32.17H88.07C88.23 33.24 89 34 90.66 34C92.66 34 93.57 32.87 93.57 30.94V28.41C93.1486 29.2136 92.5098 29.8825 91.7265 30.3405C90.9432 30.7984 90.0469 31.027 89.14 31C85.89 31 83.42 28.69 83.42 24.33V21.39C83.42 17.09 85.92 14.59 89.27 14.59C90.1507 14.53 91.0294 14.7326 91.7949 15.1723C92.5604 15.612 93.1781 16.269 93.57 17.06V14.94H98.28V30.87C98.28 35.27 95.47 37.42 90.63 37.42C86 37.42 83.71 35.39 83.42 32.17ZM93.63 24.23V21.45C93.63 19.33 92.69 18.1 90.88 18.1C89.07 18.1 88.16 19.27 88.16 21.39V24.39C88.16 26.45 89.16 27.58 90.82 27.58C92.48 27.58 93.63 26.35 93.63 24.23Z" fill="url(#paint2_linear_24_19)"/>
<path d="M100.65 24.58V21.93C100.65 17.28 103.81 14.59 108.02 14.59C112.02 14.59 115.1 16.68 115.1 21.8V24.33H105.33V24.68C105.33 27.39 106.4 28.44 108.21 28.44C108.516 28.484 108.828 28.4624 109.125 28.3765C109.423 28.2907 109.698 28.1426 109.934 27.942C110.169 27.7415 110.359 27.4932 110.491 27.2135C110.624 26.9338 110.695 26.6292 110.7 26.32H115.13C114.81 29.92 112.35 31.79 108.13 31.79C103.65 31.79 100.65 29.29 100.65 24.58ZM105.33 21.36H110.58V21.13C110.58 18.76 109.58 17.81 108.05 17.81C106.63 17.81 105.46 18.7 105.33 21.36Z" fill="url(#paint3_linear_24_19)"/>
<path d="M117.44 14.94H122.15V17.28C122.57 16.4356 123.227 15.7316 124.04 15.2539C124.853 14.7763 125.788 14.5456 126.73 14.59C129.51 14.59 131.35 16.33 131.35 20.03V31.47H126.64V20.82C126.64 19.14 126 18.35 124.58 18.35C123.16 18.35 122.15 19.24 122.15 21.07V31.47H117.44V14.94Z" fill="url(#paint4_linear_24_19)"/>
<path d="M138.33 13H133.33V8.87H148.6V13H143.6V31.49H138.32L138.33 13Z" fill="url(#paint5_linear_24_19)"/>
<path d="M147.94 24.58V21.93C147.94 17.28 151.1 14.59 155.31 14.59C159.26 14.59 162.39 16.68 162.39 21.8V24.33H152.62V24.68C152.62 27.39 153.7 28.44 155.5 28.44C155.806 28.4823 156.118 28.4595 156.415 28.3731C156.712 28.2867 156.988 28.1386 157.224 27.9385C157.46 27.7385 157.651 27.4909 157.784 27.212C157.918 26.9331 157.992 26.6292 158 26.32H162.42C162.11 29.92 159.64 31.79 155.42 31.79C151 31.79 147.94 29.29 147.94 24.58ZM152.62 21.36H157.87V21.13C157.87 18.76 156.87 17.81 155.34 17.81C153.92 17.81 152.75 18.7 152.62 21.36Z" fill="url(#paint6_linear_24_19)"/>
<path d="M164.13 24.64V21.93C164.13 17.09 167.35 14.59 171.43 14.59C175 14.59 178.04 16.11 178.26 20.69H173.83C173.71 18.89 172.92 18.23 171.53 18.23C169.85 18.23 168.87 19.36 168.87 21.77V24.68C168.87 27.14 169.82 28.31 171.62 28.31C172.98 28.31 173.99 27.49 174.09 25.5H178.32C178.23 29.61 175.76 31.79 171.43 31.79C167.1 31.79 164.13 29.48 164.13 24.64Z" fill="url(#paint7_linear_24_19)"/>
<path d="M180.53 7.76001H185.24V17.28C185.662 16.4348 186.32 15.7305 187.135 15.2528C187.95 14.7752 188.886 14.5449 189.83 14.59C192.61 14.59 194.44 16.33 194.44 20.03V31.47H189.73V20.82C189.73 19.14 189.1 18.35 187.73 18.35C186.36 18.35 185.29 19.24 185.29 21.07V31.47H180.58L180.53 7.76001Z" fill="url(#paint8_linear_24_19)"/>
<path d="M35.88 0.959961H10.55C7.02642 0.959961 4.17 3.81638 4.17 7.33996V32.67C4.17 36.1935 7.02642 39.05 10.55 39.05H35.88C39.4036 39.05 42.26 36.1935 42.26 32.67V7.33996C42.26 3.81638 39.4036 0.959961 35.88 0.959961Z" fill="url(#paint9_linear_24_19)"/>
<path d="M26.24 26.93H22.24C22.1915 26.9302 22.1435 26.9205 22.0988 26.9016C22.0541 26.8827 22.0137 26.8549 21.98 26.82L19.38 24.21L18.51 23.35L15.91 20.74C15.8754 20.7082 15.8477 20.6696 15.8288 20.6266C15.8099 20.5835 15.8001 20.537 15.8 20.49V16.49C15.7998 16.4181 15.8212 16.3477 15.8613 16.288C15.9015 16.2283 15.9586 16.1821 16.0254 16.1551C16.0921 16.1282 16.1654 16.1219 16.2357 16.1371C16.306 16.1522 16.3702 16.1881 16.42 16.24L23.57 23.4L26.57 26.4C26.5969 26.4562 26.6093 26.5182 26.6058 26.5803C26.6024 26.6425 26.5834 26.7028 26.5505 26.7556C26.5176 26.8085 26.4719 26.8521 26.4176 26.8826C26.3633 26.9131 26.3023 26.9294 26.24 26.93Z" fill="white"/>
<path d="M38.27 20.28H34.69C34.4593 20.28 34.238 20.3716 34.0748 20.5348C33.9117 20.6979 33.82 20.9192 33.82 21.15V31.89C33.818 32.0605 33.7659 32.2267 33.6702 32.3679C33.5744 32.5091 33.4393 32.6191 33.2816 32.6841C33.1239 32.7491 32.9505 32.7663 32.7831 32.7335C32.6157 32.7008 32.4616 32.6196 32.34 32.5L30.5 30.66C30.4203 30.5797 30.3571 30.4845 30.3142 30.3799C30.2713 30.2752 30.2495 30.1631 30.25 30.05V21.15C30.25 20.9192 30.1583 20.6979 29.9952 20.5348C29.832 20.3716 29.6107 20.28 29.38 20.28H25.54C25.4269 20.2805 25.3148 20.2586 25.2101 20.2157C25.1054 20.1728 25.0102 20.1097 24.93 20.03L23.09 18.19C22.9704 18.0683 22.8892 17.9143 22.8564 17.7468C22.8237 17.5794 22.8409 17.4061 22.9059 17.2484C22.9709 17.0907 23.0808 16.9555 23.222 16.8598C23.3632 16.7641 23.5294 16.712 23.7 16.71H36.43C36.6502 16.7298 36.8544 16.8336 37 17L37.36 17.36L38.84 18.84C38.9457 18.9603 39.0161 19.1075 39.0435 19.2652C39.0708 19.423 39.0541 19.5853 38.9952 19.7342C38.9363 19.8831 38.8374 20.0128 38.7094 20.1091C38.5815 20.2054 38.4294 20.2645 38.27 20.28Z" fill="white"/>
<path d="M23.38 12.06C23.4091 13.0539 23.2809 14.0462 23 15C22.9349 14.3369 22.6969 13.7025 22.31 13.16C21.8937 12.4612 21.2672 11.9117 20.52 11.59C18.6557 10.94 16.6806 10.6681 14.71 10.79C13.71 10.79 12.82 10.79 11.88 10.79C11.6148 10.79 11.3604 10.8954 11.1729 11.0829C10.9854 11.2705 10.88 11.5248 10.88 11.79V28C10.89 28.2059 10.8362 28.4099 10.7258 28.584C10.6155 28.7582 10.454 28.8939 10.2635 28.9727C10.0731 29.0516 9.86286 29.0696 9.66174 29.0244C9.46062 28.9791 9.27839 28.8728 9.14 28.72L7.58 27.21C7.48431 27.1162 7.40844 27.0042 7.35691 26.8805C7.30537 26.7568 7.27922 26.624 7.28 26.49V8.30003C7.28 8.03482 7.38536 7.78046 7.57289 7.59292C7.76043 7.40539 8.01478 7.30003 8.28 7.30003H16.65C17.43 7.30003 18.23 7.23003 19.01 7.30003C19.7746 7.35517 20.5199 7.56616 21.2 7.92003C21.4871 8.05588 21.7452 8.24605 21.96 8.48003C22.1632 8.71485 22.3471 8.96566 22.51 9.23003C22.9335 9.92921 23.206 10.7093 23.31 11.52C23.3423 11.6988 23.3656 11.879 23.38 12.06Z" fill="white"/>
<path d="M12.71 11.4501C13.5302 11.3583 14.3547 11.3116 15.18 11.3101C17.18 11.3101 19.47 11.4501 21.07 12.8601C21.3982 13.1269 21.6558 13.4703 21.82 13.8601C21.5323 13.4527 21.1606 13.1117 20.73 12.8601C19.4142 12.0948 17.9221 11.6847 16.4 11.6701C15.17 11.6001 13.94 11.5501 12.71 11.5101V11.4501Z" fill="white"/>
<path d="M16.4 22.0601C17.2408 22.7477 18.0452 23.4787 18.81 24.2501C19.5814 25.0148 20.3124 25.8192 21 26.6601C20.1592 25.9724 19.3548 25.2414 18.59 24.4701C17.8152 23.7056 17.0809 22.9012 16.39 22.0601H16.4Z" fill="white"/>
<defs>
<linearGradient id="paint0_linear_24_19" x1="48.18" y1="20.89" x2="213.69" y2="20.89" gradientUnits="userSpaceOnUse">
<stop stop-color="#4ADC82"/>
<stop offset="1" stop-color="#3B83F4"/>
</linearGradient>
<linearGradient id="paint1_linear_24_19" x1="48.18" y1="20.8901" x2="213.69" y2="20.8901" gradientUnits="userSpaceOnUse">
<stop stop-color="#4ADC82"/>
<stop offset="1" stop-color="#3B83F4"/>
</linearGradient>
<linearGradient id="paint2_linear_24_19" x1="48.18" y1="20.89" x2="213.69" y2="20.89" gradientUnits="userSpaceOnUse">
<stop stop-color="#4ADC82"/>
<stop offset="1" stop-color="#3B83F4"/>
</linearGradient>
<linearGradient id="paint3_linear_24_19" x1="48.18" y1="20.89" x2="213.69" y2="20.89" gradientUnits="userSpaceOnUse">
<stop stop-color="#4ADC82"/>
<stop offset="1" stop-color="#3B83F4"/>
</linearGradient>
<linearGradient id="paint4_linear_24_19" x1="48.18" y1="20.89" x2="213.69" y2="20.89" gradientUnits="userSpaceOnUse">
<stop stop-color="#4ADC82"/>
<stop offset="1" stop-color="#3B83F4"/>
</linearGradient>
<linearGradient id="paint5_linear_24_19" x1="48.18" y1="20.89" x2="213.69" y2="20.89" gradientUnits="userSpaceOnUse">
<stop stop-color="#4ADC82"/>
<stop offset="1" stop-color="#3B83F4"/>
</linearGradient>
<linearGradient id="paint6_linear_24_19" x1="48.18" y1="20.89" x2="213.69" y2="20.89" gradientUnits="userSpaceOnUse">
<stop stop-color="#4ADC82"/>
<stop offset="1" stop-color="#3B83F4"/>
</linearGradient>
<linearGradient id="paint7_linear_24_19" x1="48.18" y1="20.89" x2="213.69" y2="20.89" gradientUnits="userSpaceOnUse">
<stop stop-color="#4ADC82"/>
<stop offset="1" stop-color="#3B83F4"/>
</linearGradient>
<linearGradient id="paint8_linear_24_19" x1="48.18" y1="20.89" x2="213.69" y2="20.89" gradientUnits="userSpaceOnUse">
<stop stop-color="#4ADC82"/>
<stop offset="1" stop-color="#3B83F4"/>
</linearGradient>
<linearGradient id="paint9_linear_24_19" x1="4.17" y1="20" x2="42.25" y2="20" gradientUnits="userSpaceOnUse">
<stop stop-color="#4ADC82"/>
<stop offset="1" stop-color="#3B83F4"/>
</linearGradient>
</defs>
</svg>
