<svg id="Layer_1" data-name="Layer 1" xmlns="http://www.w3.org/2000/svg" xmlns:xlink="http://www.w3.org/1999/xlink" viewBox="0 0 32 32"><defs><style>.cls-1{fill:url(#linear-gradient);}</style><linearGradient id="linear-gradient" x1="0.46" y1="16" x2="31.54" y2="16" gradientUnits="userSpaceOnUse"><stop offset="0" stop-color="#4adc82"/><stop offset="1" stop-color="#3b83f4"/></linearGradient></defs><rect class="cls-1" x="0.46" y="0.46" width="31.08" height="31.08" rx="5.21"/><path d="M18.47,21.65h-3.3a.3.3,0,0,1-.2-.08l-2.13-2.13-.71-.71L10,16.61a.29.29,0,0,1-.09-.21V13.1a.3.3,0,0,1,.5-.21l5.84,5.84,2.42,2.42h0A.29.29,0,0,1,18.47,21.65Z"/><path d="M28.29,16.23H25.37a.71.71,0,0,0-.71.71V25.7a.71.71,0,0,1-1.21.5L22,24.7a.71.71,0,0,1-.21-.5V16.94a.71.71,0,0,0-.71-.71H17.9a.7.7,0,0,1-.5-.21l-1.5-1.5h0a.71.71,0,0,1,.5-1.21H26.79a.75.75,0,0,1,.5.21l.29.29L28.79,15A.71.71,0,0,1,28.29,16.23Z"/><path d="M16.14,9.52A7.69,7.69,0,0,1,15.83,12a3.2,3.2,0,0,0-.56-1.5A3.16,3.16,0,0,0,13.8,9.17a12.06,12.06,0,0,0-4.74-.65l-2.31,0a.83.83,0,0,0-.83.83V22.55a.83.83,0,0,1-1.42.59L3.24,21.88A.87.87,0,0,1,3,21.29V6.45a.83.83,0,0,1,.83-.83h6.83c.64,0,1.29-.06,1.93,0a4.72,4.72,0,0,1,1.79.51,1.93,1.93,0,0,1,.61.45,5.52,5.52,0,0,1,.46.62,5,5,0,0,1,.65,1.87C16.12,9.21,16.13,9.37,16.14,9.52Z"/><path d="M7.43,9a16.92,16.92,0,0,1,2-.11c1.66,0,3.51.11,4.81,1.26a2.28,2.28,0,0,1,.62.8,2.68,2.68,0,0,0-.9-.84,7,7,0,0,0-3.53-1c-1-.06-2-.1-3-.14Z"/><line x1="10.45" y1="17.68" x2="14.2" y2="21.44"/><path d="M10.45,17.68c.68.55,1.34,1.18,2,1.79a23.74,23.74,0,0,1,1.79,2c-.68-.55-1.34-1.18-2-1.79a23.74,23.74,0,0,1-1.79-2Z"/></svg>