<svg id="Layer_1" data-name="Layer 1" xmlns="http://www.w3.org/2000/svg" xmlns:xlink="http://www.w3.org/1999/xlink" viewBox="0 0 200 40"><defs><style>.cls-1{fill:url(#linear-gradient);}.cls-2{fill:url(#linear-gradient-10);}.cls-3{fill:#fff;}</style><linearGradient id="linear-gradient" x1="48.18" y1="20.89" x2="213.69" y2="20.89" gradientUnits="userSpaceOnUse"><stop offset="0" stop-color="#4adc82"/><stop offset="1" stop-color="#3b83f4"/></linearGradient><linearGradient id="linear-gradient-10" x1="4.17" y1="20" x2="42.25" y2="20" xlink:href="#linear-gradient"/></defs><path class="cls-1" d="M50,8.87h7.4c5.21,0,8,2.12,8,6.48v.82c0,3.13-1.48,4.68-3.57,5.47l4.55,9.83H60.82l-4-8.88H55.26v8.88H50Zm7.21,10.21c2,0,3-.82,3-2.81v-.76c0-1.9-1-2.63-3-2.63h-2v6.2Z"/><path class="cls-1" d="M67.52,27v-.37c0-3.74,2.75-5,7.24-5h1.65V20.44c0-1.55-.38-2.47-1.93-2.47-1.36,0-1.9.79-2,2H68c.16-3.7,2.78-5.41,6.67-5.41s6.38,1.71,6.38,5.66V31.47H76.5V29.7a4.42,4.42,0,0,1-4.17,2.09C69.67,31.79,67.52,30.34,67.52,27Zm8.89-.75V24.52H75c-1.86,0-2.78.47-2.78,1.86v.35c0,1.23.57,1.83,1.8,1.83A2.16,2.16,0,0,0,76.41,26.26Z"/><path class="cls-1" d="M83.42,32.17h4.65C88.23,33.24,89,34,90.66,34c2,0,2.91-1.13,2.91-3.06V28.41A4.84,4.84,0,0,1,89.14,31c-3.25,0-5.72-2.31-5.72-6.67V21.39c0-4.3,2.5-6.8,5.85-6.8a4.46,4.46,0,0,1,4.3,2.47V14.94h4.71V30.87c0,4.4-2.81,6.55-7.65,6.55C86,37.42,83.71,35.39,83.42,32.17Zm10.21-7.94V21.45c0-2.12-.94-3.35-2.75-3.35s-2.72,1.17-2.72,3.29v3c0,2.06,1,3.19,2.66,3.19S93.63,26.35,93.63,24.23Z"/><path class="cls-1" d="M100.65,24.58V21.93c0-4.65,3.16-7.34,7.37-7.34,4,0,7.08,2.09,7.08,7.21v2.53h-9.77v.35c0,2.71,1.07,3.76,2.88,3.76a2.18,2.18,0,0,0,2.49-2.12h4.43c-.32,3.6-2.78,5.47-7,5.47C103.65,31.79,100.65,29.29,100.65,24.58Zm4.68-3.22h5.25v-.23c0-2.37-1-3.32-2.53-3.32C106.63,17.81,105.46,18.7,105.33,21.36Z"/><path class="cls-1" d="M117.44,14.94h4.71v2.34a4.86,4.86,0,0,1,4.58-2.69c2.78,0,4.62,1.74,4.62,5.44V31.47h-4.71V20.82c0-1.68-.64-2.47-2.06-2.47s-2.43.89-2.43,2.72v10.4h-4.71Z"/><path class="cls-1" d="M138.33,13h-5V8.87h15.27V13h-5l0,18.49h-5.28Z"/><path class="cls-1" d="M147.94,24.58V21.93c0-4.65,3.16-7.34,7.37-7.34,3.95,0,7.08,2.09,7.08,7.21v2.53h-9.77v.35c0,2.71,1.08,3.76,2.88,3.76a2.2,2.2,0,0,0,2.5-2.12h4.42c-.31,3.6-2.78,5.47-7,5.47C151,31.79,147.94,29.29,147.94,24.58Zm4.68-3.22h5.25v-.23c0-2.37-1-3.32-2.53-3.32C153.92,17.81,152.75,18.7,152.62,21.36Z"/><path class="cls-1" d="M164.13,24.64V21.93c0-4.84,3.22-7.34,7.3-7.34,3.57,0,6.61,1.52,6.83,6.1h-4.43c-.12-1.8-.91-2.46-2.3-2.46-1.68,0-2.66,1.13-2.66,3.54v2.91c0,2.46.95,3.63,2.75,3.63,1.36,0,2.37-.82,2.47-2.81h4.23c-.09,4.11-2.56,6.29-6.89,6.29S164.13,29.48,164.13,24.64Z"/><path class="cls-1" d="M180.53,7.76h4.71v9.52a4.87,4.87,0,0,1,4.59-2.69c2.78,0,4.61,1.74,4.61,5.44V31.47h-4.71V20.82c0-1.68-.63-2.47-2-2.47s-2.44.89-2.44,2.72v10.4h-4.71Z"/><rect class="cls-2" x="4.17" y="0.96" width="38.09" height="38.09" rx="6.38"/><path class="cls-3" d="M26.24,26.93h-4a.36.36,0,0,1-.26-.11l-2.6-2.61-.87-.86-2.6-2.61a.34.34,0,0,1-.11-.25v-4a.36.36,0,0,1,.62-.25l7.15,7.16,3,3h0A.37.37,0,0,1,26.24,26.93Z"/><path class="cls-3" d="M38.27,20.28H34.69a.87.87,0,0,0-.87.87V31.89a.87.87,0,0,1-1.48.61L30.5,30.66a.86.86,0,0,1-.25-.61v-8.9a.87.87,0,0,0-.87-.87H25.54a.86.86,0,0,1-.61-.25l-1.84-1.84h0a.87.87,0,0,1,.61-1.48H36.43A.86.86,0,0,1,37,17l.36.36,1.48,1.48A.87.87,0,0,1,38.27,20.28Z"/><path class="cls-3" d="M23.38,12.06A9.43,9.43,0,0,1,23,15a3.81,3.81,0,0,0-.69-1.84,3.86,3.86,0,0,0-1.79-1.57,14.86,14.86,0,0,0-5.81-.8c-1,0-1.89,0-2.83,0a1,1,0,0,0-1,1V28a1,1,0,0,1-1.74.72L7.58,27.21a1,1,0,0,1-.3-.72V8.3a1,1,0,0,1,1-1h8.37c.78,0,1.58-.07,2.36,0a5.62,5.62,0,0,1,2.19.62,2.46,2.46,0,0,1,.76.56,5.78,5.78,0,0,1,.55.75,5.86,5.86,0,0,1,.8,2.29A5.48,5.48,0,0,1,23.38,12.06Z"/><path class="cls-3" d="M12.71,11.45a22.58,22.58,0,0,1,2.47-.14c2,0,4.29.14,5.89,1.55a2.58,2.58,0,0,1,.75,1,3.49,3.49,0,0,0-1.09-1,8.78,8.78,0,0,0-4.33-1.19c-1.23-.07-2.46-.12-3.69-.16Z"/><line class="cls-3" x1="16.4" y1="22.06" x2="21.01" y2="26.66"/><path class="cls-3" d="M16.4,22.06a31.3,31.3,0,0,1,2.41,2.19A31.25,31.25,0,0,1,21,26.66a31.3,31.3,0,0,1-2.41-2.19,31.25,31.25,0,0,1-2.2-2.41Z"/></svg>